<?xml version="1.0" standalone="no"?>
<!DOCTYPE svg PUBLIC "-//W3C//DTD SVG 20010904//EN"
 "http://www.w3.org/TR/2001/REC-SVG-20010904/DTD/svg10.dtd">
<svg version="1.0" xmlns="http://www.w3.org/2000/svg"
 width="9000.000000pt" height="7800.000000pt" viewBox="0 0 9000.000000 7800.000000"
 preserveAspectRatio="xMidYMid meet">

<g transform="translate(0.000000,7800.000000) scale(0.100000,-0.100000)"
fill="#000000" stroke="none">
<path d="M34239 63660 c-1786 -45 -3382 -271 -5049 -716 -1743 -466 -3317
-1156 -4790 -2102 -1651 -1060 -3113 -2381 -4233 -3825 -893 -1151 -1570
-2338 -2058 -3606 -197 -510 -377 -1089 -519 -1666 -263 -1064 -385 -1849
-457 -2935 -22 -338 -25 -1537 -5 -1860 66 -1038 184 -1804 437 -2836 408
-1661 1092 -3144 2110 -4574 844 -1186 1848 -2247 2995 -3165 1782 -1426 3742
-2410 6040 -3033 411 -112 1143 -283 1530 -359 l95 -19 0 -1129 c0 -1188 -1
-1221 -46 -1485 -105 -611 -371 -1082 -785 -1394 -298 -223 -672 -371 -1124
-445 -191 -31 -261 -37 -1025 -86 -390 -25 -755 -53 -810 -61 -395 -63 -605
-250 -605 -541 0 -91 26 -165 80 -226 49 -55 104 -89 201 -121 136 -45 219
-50 737 -43 463 6 586 10 1217 42 627 31 709 35 1025 45 470 15 1485 30 2070
30 278 0 1608 -13 2955 -30 2409 -29 2460 -30 3035 -61 787 -42 1005 -36 1235
32 174 52 292 142 334 254 19 51 22 75 19 155 -3 81 -8 105 -35 163 -73 155
-217 237 -513 292 -68 13 -203 18 -670 25 -835 12 -1222 42 -1680 131 -1122
218 -1659 634 -1960 1517 -187 545 -264 1129 -277 2081 l-6 464 149 -7 c619
-28 1701 -26 2354 4 2166 101 4121 400 6380 976 1166 297 2336 666 3520 1109
386 144 739 283 777 305 78 45 144 103 188 166 40 56 52 85 76 178 l29 111 0
6259 0 6259 -26 112 c-24 101 -32 120 -83 191 -41 57 -80 96 -139 140 -80 60
-87 63 -215 93 l-132 31 -5305 0 -5304 0 -130 -31 c-119 -29 -135 -36 -208
-88 -61 -43 -94 -76 -140 -141 -57 -79 -63 -94 -90 -204 l-28 -118 0 -1883 0
-1884 30 -121 c27 -112 33 -126 87 -198 37 -49 86 -98 137 -136 73 -55 87 -61
195 -88 l116 -28 2767 0 2768 0 -2 -2562 -3 -2562 -75 -22 c-41 -12 -174 -51
-295 -87 -1949 -577 -3600 -888 -5235 -987 -476 -29 -1335 -22 -1905 15 -121
8 -228 15 -238 15 -17 0 -17 344 -14 8028 3 5924 7 8089 15 8262 49 985 92
1351 222 1890 103 426 141 695 120 861 -27 230 -130 353 -329 395 -214 45
-350 -19 -891 -421 -818 -608 -1493 -1026 -2330 -1443 -846 -422 -1652 -733
-2565 -987 -577 -161 -857 -248 -1165 -362 -1005 -374 -1495 -777 -1468 -1207
12 -189 143 -281 398 -280 144 1 291 37 585 144 577 210 1023 302 1654 341
270 17 805 6 991 -19 444 -61 754 -185 949 -380 227 -228 350 -581 423 -1217
10 -87 13 -1457 15 -6527 2 -3530 1 -6418 -1 -6418 -3 0 -94 32 -203 71 -748
269 -1483 616 -2152 1016 -694 415 -1387 950 -1980 1528 -905 882 -1493 1674
-1996 2690 -284 573 -481 1082 -660 1707 -204 707 -327 1557 -365 2508 -44
1112 75 2310 320 3199 177 642 395 1208 702 1821 503 1006 1087 1801 1962
2675 792 791 1539 1369 2446 1892 1134 654 2427 1134 3660 1357 745 135 1455
205 2272 225 1549 37 3249 -130 4869 -479 1964 -424 4259 -1283 6317 -2363
151 -80 199 -100 289 -122 59 -15 122 -26 138 -26 45 0 245 50 274 69 99 63
173 128 217 188 41 58 52 84 76 183 l28 116 0 2155 0 2155 -26 114 c-24 101
-32 122 -78 185 -79 112 -157 162 -405 258 -833 324 -1856 695 -2656 964
-2616 881 -4580 1307 -6735 1463 -764 56 -1690 79 -2411 61z"/>
<path d="M40465 51851 c-140 -63 -324 -134 -404 -155 -108 -29 -141 -53 -141
-102 0 -23 8 -38 27 -54 23 -18 39 -20 119 -19 51 1 97 -2 103 -6 6 -3 19 -21
29 -38 16 -30 17 -108 20 -1132 2 -605 0 -1129 -3 -1164 -8 -79 -27 -100 -118
-130 -89 -30 -111 -49 -111 -95 0 -66 15 -72 177 -66 221 7 520 6 648 -4 112
-8 118 -7 138 13 30 30 25 87 -9 112 -14 10 -68 27 -121 38 -53 10 -113 27
-134 37 -70 33 -70 28 -73 581 -3 476 -2 493 17 531 45 88 191 174 330 194
218 32 418 -63 497 -236 51 -112 55 -163 52 -619 l-3 -419 -23 -18 c-13 -11
-49 -28 -80 -40 -67 -25 -102 -55 -102 -86 0 -36 11 -54 43 -70 26 -14 48 -15
185 -3 147 11 301 10 559 -7 99 -7 101 -7 127 19 33 33 34 76 4 105 -15 13
-56 28 -115 41 -138 30 -172 52 -192 126 -7 26 -11 175 -11 415 0 206 -5 407
-10 445 -34 234 -170 430 -365 526 -124 60 -188 74 -350 74 -127 -1 -148 -3
-220 -29 -100 -34 -182 -80 -274 -151 l-71 -56 0 710 c0 698 0 711 -20 731
-25 25 -72 26 -125 1z"/>
<path d="M35988 51730 c-26 -5 -199 -16 -385 -25 -281 -15 -422 -16 -838 -10
-762 12 -689 14 -719 -14 -30 -29 -34 -69 -8 -100 13 -17 38 -25 112 -36 118
-17 137 -24 177 -67 44 -46 71 -112 84 -205 6 -51 9 -413 7 -1048 -3 -889 -5
-974 -21 -1022 -27 -79 -65 -107 -202 -150 -43 -13 -64 -25 -74 -44 -18 -33
-8 -74 25 -96 24 -15 41 -16 192 -5 211 15 439 15 657 0 144 -9 175 -9 200 3
55 26 59 106 7 132 -15 8 -59 17 -99 20 -92 7 -147 32 -200 90 -72 78 -73 89
-73 591 0 243 4 447 9 455 27 42 596 41 789 -1 74 -16 96 -41 128 -144 42
-134 100 -177 168 -123 l26 20 -6 232 c-3 128 -2 290 4 361 13 169 0 205 -76
206 -42 0 -78 -37 -87 -88 -14 -83 -72 -148 -154 -173 -82 -24 -753 -38 -789
-15 -16 10 -17 898 -1 944 18 52 50 57 339 56 250 0 550 -22 648 -46 26 -7 49
-20 61 -37 22 -30 47 -112 57 -185 11 -81 62 -115 128 -85 39 18 56 66 56 161
1 99 14 208 36 301 33 138 -12 175 -178 147z"/>
<path d="M42935 51443 c-44 -22 -143 -122 -166 -165 -38 -74 -21 -125 70 -221
86 -91 128 -105 199 -68 42 22 107 87 146 145 43 64 37 106 -32 201 -86 119
-142 147 -217 108z"/>
<path d="M42945 50629 c-77 -34 -191 -79 -254 -100 -145 -49 -161 -60 -161
-104 0 -45 30 -61 128 -67 92 -7 107 -20 121 -108 14 -85 14 -989 1 -1061 -14
-72 -36 -99 -100 -121 -74 -25 -92 -43 -88 -91 2 -29 10 -45 29 -60 26 -18 33
-19 228 -6 162 10 240 10 399 0 215 -14 244 -10 264 33 13 31 -2 75 -34 95
-12 7 -67 19 -123 27 -56 7 -113 18 -127 25 -54 24 -53 7 -58 810 -5 717 -6
748 -24 768 -11 12 -29 21 -40 21 -12 -1 -84 -28 -161 -61z"/>
<path d="M46555 50623 c-91 -40 -191 -75 -255 -90 -132 -31 -167 -46 -182 -77
-14 -33 4 -79 38 -95 14 -6 63 -11 110 -11 100 0 137 -15 153 -61 7 -22 11
-201 11 -568 0 -630 7 -585 -107 -641 -39 -19 -81 -44 -92 -54 -28 -25 -28
-79 0 -107 19 -19 27 -20 132 -12 146 11 599 10 704 -1 79 -9 82 -8 107 17 33
33 33 71 2 102 -26 26 -32 28 -151 44 -92 13 -156 41 -182 79 -17 25 -18 59
-18 528 l0 501 30 39 c44 58 72 80 150 119 187 94 449 61 583 -73 52 -51 102
-144 122 -227 17 -68 26 -845 11 -902 -12 -43 -24 -51 -107 -72 -55 -15 -76
-40 -72 -87 2 -26 11 -43 28 -55 24 -17 38 -18 255 -7 178 8 264 8 382 -2 194
-16 233 -4 233 75 0 47 -37 71 -131 84 -109 16 -162 40 -186 83 -16 30 -18 74
-24 458 -7 420 -10 467 -45 575 -56 170 -178 310 -339 389 -114 57 -181 71
-335 70 -121 0 -143 -3 -215 -28 -103 -35 -186 -82 -281 -157 l-76 -61 2 109
c3 142 3 140 -20 163 -32 32 -74 23 -235 -47z"/>
<path d="M36915 50636 c-160 -31 -291 -102 -398 -216 -83 -87 -127 -174 -127
-248 0 -50 3 -58 38 -92 47 -46 134 -80 229 -87 67 -5 73 -4 97 20 31 32 32
46 5 133 -59 191 -1 287 183 301 177 13 344 -63 393 -180 20 -47 37 -217 33
-327 l-3 -85 -55 -8 c-135 -20 -369 -71 -472 -104 -343 -108 -486 -275 -456
-531 17 -147 110 -254 274 -314 88 -32 297 -32 409 0 93 27 217 83 299 136
l58 37 68 -66 c84 -80 157 -116 250 -123 112 -8 283 41 339 97 30 30 28 86 -4
107 -20 13 -39 14 -100 9 -139 -13 -192 28 -214 165 -7 39 -11 249 -11 515 0
481 -3 512 -51 608 -53 103 -188 196 -346 238 -101 27 -335 35 -438 15z m453
-1148 c-6 -232 -14 -266 -81 -323 -64 -55 -136 -78 -247 -79 -118 -1 -172 17
-228 78 -59 64 -77 149 -50 239 26 87 151 185 296 232 76 25 220 53 271 54
l44 1 -5 -202z"/>
<path d="M38830 50635 c-139 -28 -255 -90 -342 -183 -125 -134 -152 -315 -72
-477 64 -127 202 -220 509 -345 231 -93 296 -134 338 -214 30 -58 30 -165 0
-222 -80 -151 -313 -199 -496 -101 -110 58 -203 192 -243 349 -19 79 -51 118
-96 118 -40 0 -65 -15 -83 -50 -21 -41 -22 -414 -1 -464 17 -42 23 -45 95 -57
32 -5 91 -23 132 -39 174 -72 371 -97 519 -66 119 25 247 93 333 179 116 116
167 232 167 382 -1 262 -120 384 -525 535 -351 131 -438 204 -405 341 22 92
130 159 254 159 69 0 172 -26 221 -55 64 -37 133 -118 170 -199 18 -41 44 -81
56 -90 48 -33 105 -13 129 44 11 25 10 59 -1 183 -16 184 -21 191 -147 232
-165 54 -366 69 -512 40z"/>
<path d="M44650 50644 c-14 -2 -52 -9 -85 -15 -352 -61 -664 -331 -757 -656
-30 -104 -32 -331 -4 -438 90 -344 382 -593 763 -650 125 -19 271 -19 397 0
389 59 699 319 786 659 56 222 25 455 -87 639 -50 82 -186 223 -279 287 -170
118 -337 170 -564 175 -80 2 -156 2 -170 -1z m213 -169 c248 -52 443 -281 503
-590 25 -130 23 -344 -5 -448 -81 -303 -329 -456 -636 -392 -195 41 -377 200
-471 412 -70 157 -99 385 -70 553 58 341 343 536 679 465z"/>
<path d="M49180 50635 c-139 -28 -255 -90 -342 -183 -125 -134 -152 -315 -72
-477 64 -127 202 -220 509 -345 231 -93 296 -134 338 -214 30 -58 30 -165 0
-222 -80 -151 -313 -199 -496 -101 -110 58 -203 192 -243 349 -19 79 -51 118
-96 118 -40 0 -65 -15 -84 -51 -21 -41 -21 -413 0 -464 17 -41 23 -44 95 -56
32 -5 91 -23 132 -39 174 -72 371 -97 519 -66 119 25 247 93 333 179 116 116
167 232 167 382 -1 262 -120 384 -525 535 -351 131 -438 204 -405 341 22 92
130 159 254 159 69 0 172 -26 221 -55 64 -37 133 -118 170 -199 18 -41 44 -81
56 -90 48 -33 105 -13 129 44 11 25 10 59 -1 183 -16 184 -21 191 -147 232
-165 54 -366 69 -512 40z"/>
</g>
</svg>
